<mxfile host="www.draw.io" modified="2020-02-17T03:24:59.803Z" agent="Mozilla/5.0 (Macintosh; Intel Mac OS X 10_15_3) AppleWebKit/537.36 (KHTML, like Gecko) Chrome/80.0.3987.100 Safari/537.36" etag="auPCT9gGMtp8F2HGE12i" version="12.7.0" type="github">
  <diagram name="Page-1" id="74e2e168-ea6b-b213-b513-2b3c1d86103e">
    <mxGraphModel dx="1113" dy="639" grid="1" gridSize="10" guides="1" tooltips="1" connect="1" arrows="1" fold="1" page="1" pageScale="1" pageWidth="1169" pageHeight="827" background="#ffffff" math="0" shadow="0">
      <root>
        <mxCell id="0"/>
        <mxCell id="1" parent="0"/>
        <mxCell id="-SDhnZ54T2jrTP5QoKjL-5" value="VDEC" style="rounded=1;whiteSpace=wrap;html=1;verticalAlign=bottom;fontSize=19;" vertex="1" parent="1">
          <mxGeometry x="360" y="220" width="320" height="180" as="geometry"/>
        </mxCell>
        <mxCell id="-SDhnZ54T2jrTP5QoKjL-3" value="FY00" style="rounded=0;whiteSpace=wrap;html=1;" vertex="1" parent="1">
          <mxGeometry x="440" y="240" width="150" height="40" as="geometry"/>
        </mxCell>
        <mxCell id="-SDhnZ54T2jrTP5QoKjL-4" value="FY01" style="rounded=0;whiteSpace=wrap;html=1;" vertex="1" parent="1">
          <mxGeometry x="440" y="300" width="150" height="40" as="geometry"/>
        </mxCell>
        <mxCell id="-SDhnZ54T2jrTP5QoKjL-6" style="edgeStyle=orthogonalEdgeStyle;rounded=0;orthogonalLoop=1;jettySize=auto;html=1;exitX=0.5;exitY=1;exitDx=0;exitDy=0;fontSize=19;" edge="1" parent="1" source="-SDhnZ54T2jrTP5QoKjL-5" target="-SDhnZ54T2jrTP5QoKjL-5">
          <mxGeometry relative="1" as="geometry"/>
        </mxCell>
        <mxCell id="-SDhnZ54T2jrTP5QoKjL-7" style="edgeStyle=orthogonalEdgeStyle;rounded=0;orthogonalLoop=1;jettySize=auto;html=1;exitX=0.5;exitY=1;exitDx=0;exitDy=0;fontSize=19;" edge="1" parent="1" source="-SDhnZ54T2jrTP5QoKjL-5" target="-SDhnZ54T2jrTP5QoKjL-5">
          <mxGeometry relative="1" as="geometry"/>
        </mxCell>
      </root>
    </mxGraphModel>
  </diagram>
</mxfile>
